PathFileType	4	(X/Y/Z)	C:\Users\dbl\Desktop\20210112\20210112\bx_n_5_901.trc
DataRate	CameraRate	NumFrames	NumMarkers	Units	OrigDataRate	OrigDataStartFrame	OrigNumFrames
50.00	50.00	       5	43	mm	50.00	294	       470
Frame#	Time	Top.Head			R.Acromium			L.Acromium			Sternum			R.ASIS			L.ASIS			V.Sacral			R.Thigh.Upper			R.Thigh.Front			R.Thigh.Rear			R.Knee.Lat			R.Knee.Med			R.Shank.Upper			R.Shank.Front			R.Shank.Rear			R.Ankle.Lat			R.Midfoot.Lat			R.Toe.Lat			R.Toe.Tip			R.Toe.Med			R.Ankle.Med			R.Midfoot.Sup			R.Heel			L.Thigh.Upper			L.Thigh.Front			L.Thigh.Rear			L.Knee.Lat			L.Knee.Med			L.Shank.Upper			L.Shank.Front			L.Shank.Rear			L.Ankle.Lat			L.Midfoot.Lat			L.Toe.Lat			L.Toe.Tip			L.Toe.Med			L.Ankle.Med			L.Midfoot.Sup			L.Heel			origin1 front left			origin2 front right			origin 3 back right			origin 4 back leftt			
		X1	Y1	Z1	X2	Y2	Z2	X3	Y3	Z3	X4	Y4	Z4	X5	Y5	Z5	X6	Y6	Z6	X7	Y7	Z7	X8	Y8	Z8	X9	Y9	Z9	X10	Y10	Z10	X11	Y11	Z11	X12	Y12	Z12	X13	Y13	Z13	X14	Y14	Z14	X15	Y15	Z15	X16	Y16	Z16	X17	Y17	Z17	X18	Y18	Z18	X19	Y19	Z19	X20	Y20	Z20	X21	Y21	Z21	X22	Y22	Z22	X23	Y23	Z23	X24	Y24	Z24	X25	Y25	Z25	X26	Y26	Z26	X27	Y27	Z27	X28	Y28	Z28	X29	Y29	Z29	X30	Y30	Z30	X31	Y31	Z31	X32	Y32	Z32	X33	Y33	Z33	X34	Y34	Z34	X35	Y35	Z35	X36	Y36	Z36	X37	Y37	Z37	X38	Y38	Z38	X39	Y39	Z39	X40	Y40	Z40	X41	Y41	Z41	X42	Y42	Z42	X43	Y43	Z43	

294	5.860	-232.50293	95.07382	1547.28687	-460.52625	-75.42100	1344.44861	-466.35168	271.42322	1353.39404	-542.06409	93.88427	1160.05347	-749.04596	-12.12367	1013.76843	-752.89075	231.08536	1035.68652	-938.80988	83.88138	1085.11060	-791.06763	-58.80453	845.55634	-732.49500	-14.62224	805.07123	-818.65356	-71.93246	748.83765	-809.76721	-44.87726	608.53662	-789.39368	63.41494	564.65857	-808.40253	-42.40666	560.44098	-749.10596	7.63482	524.15356	-831.76080	-55.25904	473.44821	-764.09821	-26.73252	202.02483	-648.66431	-69.76355	160.04103	-605.27466	-74.28112	156.81145	-549.89362	-22.35821	162.64792	-601.62158	26.90301	168.26328	-728.66565	62.71908	219.84834	-675.76465	50.28464	163.72865	-795.68829	32.90112	172.17453	-843.10620	281.51639	867.44354	-734.45203	217.78366	795.36121	-824.39960	274.50891	734.42419	-833.59674	251.47935	630.06293	-784.52130	144.11374	569.37695	-821.50183	247.73192	565.70575	-758.98596	206.57466	536.65906	-844.45081	259.72595	486.78204	-773.59583	231.59892	201.51129	-660.44373	298.86011	156.24632	-623.59021	306.60327	158.57701	-557.73621	252.86812	164.26491	-594.82928	219.56052	174.22542	-720.85864	158.91147	221.42101	-677.66675	175.79639	162.75327	-799.39246	182.59708	180.88214	-528.12189	304.10153	146.53545	-518.13153	-72.96299	143.37784	-875.82471	-78.62021	141.06323	-882.63702	296.12875	144.76378	
295	5.880	-224.24692	96.37329	1531.07202	-453.88806	-74.29740	1331.73047	-460.79153	271.84235	1340.78442	-541.50604	94.00488	1150.01599	-752.90222	-11.57448	1011.43744	-756.03198	231.42999	1033.48547	-941.19098	84.40438	1085.75610	-798.91168	-61.18402	847.36377	-736.14185	-14.31693	804.78143	-821.87067	-71.98169	748.30237	-812.22345	-44.69130	608.08459	-791.72662	63.57321	564.28400	-810.62891	-42.27161	560.03168	-751.16437	7.86806	524.02307	-833.45251	-55.22153	472.93823	-764.16833	-26.80424	201.98343	-648.67310	-69.71124	160.09705	-605.26160	-74.20208	156.83250	-549.91223	-22.32002	162.64133	-601.62018	26.88609	168.27652	-728.86682	62.75098	219.86761	-675.83044	50.26075	163.77277	-795.78796	32.82181	172.14240	-846.90588	281.97852	866.80469	-738.16272	217.79039	794.58862	-827.82263	274.81522	733.60706	-836.39526	251.82407	629.31036	-787.17041	144.35504	569.00403	-824.00128	248.02748	565.13727	-761.43152	206.67470	536.30505	-846.53485	259.97308	486.12744	-773.80408	231.77872	201.45493	-660.47723	298.87540	156.18492	-623.59668	306.60376	158.57048	-557.82574	252.86531	164.25995	-594.92914	219.58685	174.21555	-721.16180	158.98859	221.49104	-677.71539	175.87860	162.95732	-799.56201	182.77190	180.74301	-528.10944	304.12054	146.53584	-518.14197	-72.91773	143.33626	-875.81561	-78.61610	141.07440	-882.63745	296.12704	144.76868	
296	5.900	-216.37247	97.71466	1514.77124	-447.30292	-73.05771	1318.68835	-455.52896	272.30780	1328.12048	-540.81427	94.03507	1140.10974	-756.51855	-11.05508	1009.08020	-759.04865	231.92949	1031.27795	-943.23798	84.97248	1086.31299	-809.50720	-65.75497	851.23785	-739.66681	-13.91661	804.46033	-824.92615	-71.94083	747.76831	-814.54834	-44.43232	607.63788	-794.01099	63.92602	564.04236	-812.73859	-42.06741	559.63458	-753.14758	8.15054	523.86548	-835.05408	-55.15727	472.47260	-764.22412	-26.85534	201.95772	-648.67596	-69.61180	160.16522	-605.26770	-74.11547	156.85828	-549.92535	-22.26785	162.63304	-601.63318	26.88986	168.28180	-729.04541	62.79927	219.88936	-675.87878	50.26472	163.79128	-795.88263	32.78082	172.11469	-850.64276	282.48865	866.16113	-741.87549	217.91180	793.79626	-831.24951	275.20563	732.78821	-839.17291	252.22433	628.54474	-789.77411	144.63535	568.65125	-826.48633	248.35764	564.55511	-763.88940	206.82848	535.95502	-848.60229	260.26083	485.44955	-774.00555	231.92520	201.35675	-660.50537	298.89554	156.12012	-623.60699	306.59747	158.55644	-557.89532	252.87405	164.27284	-595.03143	219.59125	174.20146	-721.45325	159.06532	221.56250	-677.74365	175.92981	163.16742	-799.73901	182.93597	180.61261	-528.10571	304.12158	146.51872	-518.14380	-72.86557	143.28745	-875.80884	-78.61144	141.08563	-882.63654	296.12057	144.76520	
297	5.920	-208.89047	99.06299	1498.45374	-440.79608	-71.72064	1305.37280	-450.51086	272.78650	1315.40833	-539.98163	93.97148	1130.37598	-759.87213	-10.60331	1006.71735	-761.92395	232.53194	1029.06287	-945.01031	85.58411	1086.80103	-820.76489	-71.05248	855.82971	-743.03455	-13.39922	804.12134	-827.77228	-71.80269	747.24213	-816.71387	-44.11452	607.21008	-796.22388	64.42906	563.88696	-814.69556	-41.80765	559.25830	-755.02356	8.47285	523.69885	-836.52802	-55.06523	472.04065	-764.25287	-26.89002	201.94273	-648.66840	-69.47192	160.23943	-605.28931	-74.02673	156.87576	-549.92889	-22.19404	162.62941	-601.65723	26.92531	168.27098	-729.20770	62.84065	219.90479	-675.90222	50.29673	163.77826	-795.95471	32.76455	172.08466	-854.30731	283.04596	865.51648	-745.55969	218.17462	793.03394	-834.62598	275.71454	731.98834	-841.88995	252.66614	627.78241	-792.28827	144.94276	568.32379	-828.90662	248.71635	563.97272	-766.29431	207.05284	535.63879	-850.60388	260.58948	484.75357	-774.19684	232.03212	201.21405	-660.52478	298.92044	156.05453	-623.61682	306.58383	158.53204	-557.94122	252.87892	164.29472	-595.12219	219.56735	174.18692	-721.72064	159.16156	221.64581	-677.76410	175.94600	163.35794	-799.90631	183.08035	180.50676	-528.11658	304.10144	146.48318	-518.14221	-72.81531	143.24324	-875.80542	-78.60648	141.09503	-882.63556	296.10745	144.75073	
298	5.940	-201.80206	100.39445	1482.17200	-434.41418	-70.31586	1291.85583	-445.67828	273.23929	1302.62268	-539.02625	93.82979	1120.84106	-762.97095	-10.23185	1004.36560	-764.63824	233.17407	1026.83643	-946.56641	86.23588	1087.24866	-830.67517	-75.62202	859.80963	-746.21490	-12.75384	803.78021	-830.38959	-71.57130	746.72943	-818.70764	-43.76076	606.81714	-798.34082	65.00978	563.75543	-816.47986	-41.51569	558.90839	-756.76941	8.82022	523.54913	-837.84747	-54.94375	471.62714	-764.24780	-26.91372	201.93683	-648.64594	-69.30505	160.31445	-605.32025	-73.93748	156.87698	-549.92041	-22.09490	162.64111	-601.68286	27.00219	168.23517	-729.35632	62.86584	219.91083	-675.90186	50.34992	163.73473	-795.99152	32.75661	172.05064	-857.87695	283.63721	864.87848	-749.14728	218.58722	792.34271	-837.88757	276.34308	731.22577	-844.50079	253.13475	627.04468	-794.67712	145.26613	568.02026	-831.21143	249.09721	563.40149	-768.57788	207.35713	535.37793	-852.49432	260.95547	484.05304	-774.37494	232.10187	201.03014	-660.53339	298.94864	155.99210	-623.62036	306.56628	158.49832	-557.96533	252.86642	164.30911	-595.18695	219.51517	174.17644	-721.95721	159.28989	221.75168	-677.78369	175.93362	163.50627	-800.04401	183.20274	180.43495	-528.14447	304.06024	146.43192	-518.14423	-72.77309	143.21431	-875.80457	-78.60149	141.10161	-882.63611	296.08752	144.72595	
